<svg width="45" height="43" viewBox="0 0 45 43" fill="none" xmlns="http://www.w3.org/2000/svg">
<path d="M33.8578 41.6611C33.3528 41.6611 32.8503 41.5061 32.4178 41.1974L22.2503 33.9049L12.0816 41.1974C11.2153 41.8174 10.0528 41.8174 9.19155 41.1874C8.3303 40.5636 7.9678 39.4561 8.2903 38.4449L12.0828 26.2049L2.0053 19.1049C1.14905 18.4724 0.792803 17.3636 1.1203 16.3499C1.4503 15.3411 2.3903 14.6536 3.4528 14.6461L15.9328 14.6274L19.9066 2.69112C20.2416 1.67987 21.1853 0.999874 22.2503 0.999874C23.3141 0.999874 24.2578 1.67987 24.5941 2.69112L28.4991 14.6274L34.7722 14.6367L41.0453 14.6461C42.1103 14.6536 43.0516 15.3411 43.3791 16.3499C43.7078 17.3636 43.3516 18.4724 42.4941 19.1049L32.4166 26.2049L36.2091 38.4449C36.5341 39.4561 36.1678 40.5636 35.3091 41.1874C34.8753 41.5049 34.3666 41.6611 33.8578 41.6611Z" stroke="#FFAC33" stroke-width="2"/>
<g clip-path="url(#clip0_2631_826)">
<path d="M33.8578 41.6611C33.3528 41.6611 32.8503 41.5061 32.4178 41.1974L22.2503 33.9049L12.0816 41.1974C11.2153 41.8174 10.0528 41.8174 9.19155 41.1874C8.3303 40.5636 7.9678 39.4561 8.2903 38.4449L12.0828 26.2049L2.0053 19.1049C1.14905 18.4724 0.792803 17.3636 1.1203 16.3499C1.4503 15.3411 2.3903 14.6536 3.4528 14.6461L15.9328 14.6274L19.9066 2.69112C20.2416 1.67987 21.1853 0.999874 22.2503 0.999874C23.3141 0.999874 24.2578 1.67987 24.5941 2.69112L28.4991 14.6274L34.7722 14.6367L41.0453 14.6461C42.1103 14.6536 43.0516 15.3411 43.3791 16.3499C43.7078 17.3636 43.3516 18.4724 42.4941 19.1049L32.4166 26.2049L36.2091 38.4449C36.5341 39.4561 36.1678 40.5636 35.3091 41.1874C34.8753 41.5049 34.3666 41.6611 33.8578 41.6611Z" fill="#FFAC33" stroke="#FFAC33" stroke-width="2"/>
</g>
<defs>
<clipPath id="clip0_2631_826">
<rect width="27" height="41" fill="white" transform="translate(1)"/>
</clipPath>
</defs>
</svg>
