<svg width="132" height="24" fill="none" xmlns="http://www.w3.org/2000/svg"><g clip-path="url(#clip0)" fill="#fff"><path d="M82.606 13a.158.158 0 01.064-.026c.106-.041.205-.078.29-.114.054-.028.11-.051.167-.07 1.63-.773 2.997-2.477 2.997-4.27 0-3.765-2.8-4.947-6.073-4.947h-6.18c.061.122.374 1.458.374 1.509v16.581h2.861a.492.492 0 00.463-.31.5.5 0 00.036-.192v-7.559h1.368c2.012 0 3.259-.467 3.564-.575.01-.018.041-.025.066-.028h.004zm-3.416-1.805h-1.579V6.05h2.13c1.518 0 2.813.816 2.813 2.439 0 2.1-1.452 2.703-3.361 2.703m-13.75-7.619h-5.701c.06.12.37 1.458.37 1.509v16.581h2.865a.51.51 0 00.517-.502v-6.765H65.5c3.326 0 6.49-1.631 6.49-5.408 0-4.08-2.987-5.415-6.551-5.415h.003zM65.57 12h-2.067V6.02h2.08c1.884 0 2.82 1.165 2.82 2.968 0 1.755-1.005 3.012-2.83 3.012"/><path d="M79.813 14.975l4.148 6.687h3.834l-4.665-7.204a10.986 10.986 0 01-3.317.52m8.957-9.896v16.577h2.894a.506.506 0 00.516-.5V3.573h-3.737c.012.12.328 1.457.328 1.509m16.2 8.968c-.34.97-.41 1.864-.657 2.905-.201-1.027-.342-2.008-.718-3.005L99.777 3.573H95.05c.008.12.341 1.457.341 1.509v16.566h2.22a.518.518 0 00.474-.517V9.386c0-.603-.12-1.214-.131-1.782.2.59.375 1.18.586 1.782l4.528 12.277h1.825l4.396-12.277c.212-.603.385-1.193.59-1.782-.076.591-.12 1.186-.131 1.782v12.262h2.86a.518.518 0 00.477-.517V3.573h-4.342l-3.771 10.477zM123.35 3.307c-5.5 0-8.532 4-8.532 9.284 0 5.243 3.002 9.347 8.507 9.347 5.458 0 8.677-3.968 8.677-9.286 0-5.42-3.047-9.346-8.65-9.346h-.002zm.077 16.29c-3.866 0-4.988-3.86-4.988-7.102 0-3.19 1.149-6.854 4.944-6.854 3.878 0 4.985 3.887 4.985 7.094 0 3.207-1.149 6.862-4.941 6.862zM1.331 12.443c0 1.338.914 2.483 2.5 2.483a3.057 3.057 0 001.491-.369v-1.246H3.424V12.27h3.1v2.8a3.958 3.958 0 01-2.713 1.042c-2.195 0-3.814-1.654-3.814-3.682s1.585-3.698 3.791-3.698c1.037 0 1.829.286 2.581.858l-.583.983c-.702-.47-1.3-.664-1.962-.664-1.599 0-2.493 1.237-2.493 2.535zm12.349.857c.122.767.508 1.676 1.26 1.676.291-.003.57-.116.783-.317l.457.9a1.997 1.997 0 01-1.423.552c-1.677 0-2.193-1.921-2.266-2.739H11.29v2.626h-1.3V8.846h3.069c1.412 0 2.216 1.073 2.216 2.299-.001 1.042-.601 1.902-1.595 2.156zm-.824-.97c.671 0 1.098-.49 1.098-1.195 0-.704-.438-1.206-1.098-1.206H11.29v2.402h1.566zm11.898-3.484v4.476c0 1.828-1.32 2.789-2.876 2.789-1.555 0-2.876-.961-2.876-2.79V8.847h1.3v4.476c0 1.113.723 1.665 1.58 1.665.857 0 1.578-.552 1.578-1.665V8.846h1.294zm3.77 7.152V8.846h2.988c1.423 0 2.225 1.058 2.225 2.299 0 1.24-.813 2.238-2.225 2.238h-1.687v2.615h-1.301zm2.786-3.648c.68 0 1.098-.5 1.098-1.215 0-.736-.418-1.234-1.098-1.234h-1.485v2.45h1.485zm8.92-3.616c2.034 0 3.721 1.655 3.721 3.688 0 2.034-1.687 3.689-3.72 3.689-2.034 0-3.72-1.655-3.72-3.689 0-2.033 1.687-3.688 3.72-3.688zm0 6.192c1.312 0 2.4-1.059 2.4-2.504s-1.088-2.503-2.4-2.503c-1.31 0-2.397 1.063-2.397 2.503 0 1.441 1.087 2.504 2.398 2.504zM52.679 0h-.653v24h.653V0z"/></g><defs><clipPath id="clip0"><path fill="#fff" d="M0 0h132v24H0z"/></clipPath></defs></svg>