<svg width="48" height="48" viewBox="0 0 48 48" fill="none" xmlns="http://www.w3.org/2000/svg">
<path d="M36.0137 9.46048H33.8975" stroke="#fd7823" stroke-width="2" stroke-linecap="round" stroke-linejoin="round"/>
<path d="M8.88771 21.9656H11.004" stroke="#fd7823" stroke-width="2" stroke-linecap="round" stroke-linejoin="round"/>
<path d="M15.8139 29.4685H6.00208C3.23951 29.4685 1 27.229 1 24.4664V6.95911C1 4.19654 3.23951 1.95703 6.00208 1.95703H38.5156C41.2782 1.95703 43.5177 4.19654 43.5177 6.95911V11.7111" stroke="#fd7823" stroke-width="2" stroke-linecap="round" stroke-linejoin="round"/>
<path d="M18.5073 29.4685H6.29065C3.36871 29.4685 1 27.0998 1 24.1778V7.24768C1 4.32574 3.36871 1.95703 6.29065 1.95703H38.2271C41.149 1.95703 43.5177 4.32574 43.5177 7.24768V11.7111" stroke="#fd7823" stroke-width="2" stroke-linecap="round" stroke-linejoin="round"/>
<path d="M18.7228 19.2499C16.7768 17.2952 16.7804 14.1342 18.7307 12.1838C20.681 10.2335 23.8421 10.2299 25.7968 12.1759" stroke="#fd7823" stroke-width="2" stroke-linecap="round" stroke-linejoin="round"/>
<path fill-rule="evenodd" clip-rule="evenodd" d="M46.0181 21.9654V44.4748C46.0181 45.8561 44.8983 46.9758 43.5171 46.9758H28.5108C27.1295 46.9758 26.0098 45.8561 26.0098 44.4748V21.9654C26.0098 20.5841 27.1295 19.4644 28.5108 19.4644H43.5171C44.8983 19.4644 46.0181 20.5841 46.0181 21.9654Z" stroke="#fd7823" stroke-width="2" stroke-linecap="round" stroke-linejoin="round"/>
<path d="M46.0181 29.4685H26.0098" stroke="#fd7823" stroke-width="2" stroke-linecap="round" stroke-linejoin="round"/>
<path d="M32.8872 35.2212C32.8182 35.2212 32.7622 35.2772 32.7622 35.3462C32.7622 35.4153 32.8182 35.4713 32.8872 35.4713C32.9563 35.4713 33.0123 35.4153 33.0123 35.3462V35.3462C33.0123 35.2772 32.9563 35.2212 32.8872 35.2212" stroke="#fd7823" stroke-width="2" stroke-linecap="round" stroke-linejoin="round"/>
<path d="M39.1411 35.2212C39.0721 35.2212 39.0161 35.2772 39.0161 35.3462C39.0161 35.4153 39.0721 35.4713 39.1411 35.4713C39.2102 35.4713 39.2662 35.4153 39.2662 35.3462V35.3462C39.2662 35.2772 39.2102 35.2212 39.1411 35.2212" stroke="#fd7823" stroke-width="2" stroke-linecap="round" stroke-linejoin="round"/>
<path d="M32.8872 40.9736C32.8182 40.9736 32.7622 41.0296 32.7622 41.0987C32.7622 41.1677 32.8182 41.2237 32.8872 41.2237C32.9563 41.2237 33.0123 41.1677 33.0123 41.0987V41.0987C33.0123 41.0655 32.9991 41.0337 32.9757 41.0102C32.9522 40.9868 32.9204 40.9736 32.8872 40.9736" stroke="#fd7823" stroke-width="2" stroke-linecap="round" stroke-linejoin="round"/>
<path d="M39.1411 40.9736C39.0721 40.9736 39.0161 41.0296 39.0161 41.0987C39.0161 41.1677 39.0721 41.2237 39.1411 41.2237C39.2102 41.2237 39.2662 41.1677 39.2662 41.0987V41.0987C39.2662 41.0655 39.253 41.0337 39.2296 41.0102C39.2061 40.9868 39.1743 40.9736 39.1411 40.9736" stroke="#fd7823" stroke-width="2" stroke-linecap="round" stroke-linejoin="round"/>
</svg>
