<svg width="48" height="49" viewBox="0 0 48 49" fill="none" xmlns="http://www.w3.org/2000/svg">
<path d="M24 34.957V22.957" stroke="#fd7823" stroke-width="1.5" stroke-linecap="round" stroke-linejoin="round"/>
<path d="M24 14.7268C23.86 14.7268 23.75 14.8368 23.75 14.9768C23.75 15.1168 23.86 15.2268 24 15.2268C24.14 15.2268 24.25 15.1168 24.25 14.9768C24.25 14.8368 24.14 14.7268 24 14.7268" stroke="#fd7823" stroke-width="1.5" stroke-linecap="round" stroke-linejoin="round"/>
<path d="M24 6.75684C23.86 6.75684 23.75 6.86684 23.75 7.00684C23.75 7.14684 23.86 7.25684 24 7.25684C24.14 7.25684 24.25 7.14684 24.25 7.00684C24.25 6.86684 24.14 6.75684 24 6.75684" stroke="#fd7823" stroke-width="1.5" stroke-linecap="round" stroke-linejoin="round"/>
<path d="M40 42.957H8" stroke="#fd7823" stroke-width="1.5" stroke-linecap="round" stroke-linejoin="round"/>
<path d="M32 26.957L23.998 34.959L15.998 26.957" stroke="#fd7823" stroke-width="1.5" stroke-linecap="round" stroke-linejoin="round"/>
</svg>
