<svg width="45" height="45" viewBox="0 0 45 45" fill="none" xmlns="http://www.w3.org/2000/svg">
<mask id="mask0_2631_796" style="mask-type:alpha" maskUnits="userSpaceOnUse" x="0" y="0" width="45" height="45">
<path d="M0 0L45 0L45 45L0 45L0 0Z" fill="white"/>
</mask>
<g mask="url(#mask0_2631_796)">
<path d="M34.1078 43.2837C33.6028 43.2837 33.1003 43.1287 32.6678 42.8199L22.5003 35.5274L12.3316 42.8199C11.4653 43.4399 10.3028 43.4399 9.44155 42.8099C8.5803 42.1862 8.2178 41.0787 8.5403 40.0674L12.3328 27.8274L2.2553 20.7274C1.39905 20.0949 1.0428 18.9862 1.3703 17.9724C1.7003 16.9637 2.6403 16.2762 3.7028 16.2687L16.1828 16.2499L20.1566 4.31368C20.4916 3.30243 21.4353 2.62243 22.5003 2.62243C23.5641 2.62243 24.5078 3.30243 24.8441 4.31368L28.7491 16.2499L41.2953 16.2687C42.3603 16.2762 43.3016 16.9637 43.6291 17.9724C43.9578 18.9862 43.6016 20.0949 42.7441 20.7274L32.6666 27.8274L36.4591 40.0674C36.7841 41.0787 36.4178 42.1862 35.5591 42.8099C35.1253 43.1274 34.6166 43.2837 34.1078 43.2837Z" fill="#FFAC33"/>
</g>
</svg>
