<svg width="86" height="49" viewBox="0 0 86 49" fill="none" xmlns="http://www.w3.org/2000/svg">
<path d="M64.9403 36.9255H50.0323C47.9404 36.9255 46.2461 35.2312 46.2461 33.1394V10.4224C46.2461 8.33054 47.9404 6.63623 50.0323 6.63623H67.07C69.1619 6.63623 70.8562 8.33054 70.8562 10.4224" stroke="#fd7823" stroke-width="2" stroke-linecap="round" stroke-linejoin="round"/>
<path d="M70.8567 10.4224V16.1016" stroke="#fd7823" stroke-width="2" stroke-linecap="round" stroke-linejoin="round"/>
<path d="M58.5501 30.9302C58.376 30.9302 58.234 31.0722 58.2359 31.2463C58.2359 31.4205 58.3779 31.5625 58.552 31.5625C58.7262 31.5625 58.8682 31.4205 58.8682 31.2463C58.8682 31.0722 58.7262 30.9302 58.5501 30.9302" stroke="#fd7823" stroke-width="2" stroke-linecap="round" stroke-linejoin="round"/>
<path fill-rule="evenodd" clip-rule="evenodd" d="M68.7256 16.1016H76.5346C78.6264 16.1016 80.3207 17.7959 80.3207 19.8877V36.9255C80.3207 39.0173 78.6264 40.7116 76.5346 40.7116H68.7256C66.6338 40.7116 64.9395 39.0173 64.9395 36.9255V19.8877C64.9395 17.7959 66.6338 16.1016 68.7256 16.1016Z" stroke="#fd7823" stroke-width="2" stroke-linecap="round" stroke-linejoin="round"/>
<path d="M70.9707 36.4522H74.2836" stroke="#fd7823" stroke-width="2" stroke-linecap="round" stroke-linejoin="round"/>
<rect x="6.48242" y="8.52295" width="34.0897" height="24.6203" rx="2" stroke="#fd7823" stroke-width="2" stroke-linecap="round" stroke-linejoin="round"/>
<path d="M15.0039 38.8254H32.0487" stroke="#fd7823" stroke-width="2" stroke-linecap="round" stroke-linejoin="round"/>
</svg>
