<svg width="107" height="35" viewBox="0 0 107 35" fill="none" xmlns="http://www.w3.org/2000/svg">
<g clip-path="url(#clip0_2503_2438)">
<path d="M31.5157 28.3351V12.9778C31.5151 12.9592 31.5183 12.9406 31.5251 12.9232C31.532 12.9058 31.5423 12.89 31.5555 12.8768C31.5688 12.8636 31.5845 12.8533 31.6019 12.8464C31.6193 12.8396 31.6379 12.8364 31.6566 12.837H34.6053C34.6427 12.837 34.6785 12.8518 34.7049 12.8782C34.7313 12.9047 34.7462 12.9405 34.7462 12.9778V18.5119H34.7916C35.1882 18.0391 35.6884 17.6641 36.2534 17.4159C36.8183 17.1677 37.4329 17.053 38.0494 17.0807C40.3711 17.0807 41.1163 18.5983 41.1163 20.6111V28.3351C41.1163 28.3725 41.1014 28.4083 41.075 28.4347C41.0486 28.4612 41.0128 28.476 40.9754 28.476H38.0267C37.9893 28.476 37.9535 28.4612 37.9271 28.4347C37.9006 28.4083 37.8858 28.3725 37.8858 28.3351V20.8973C37.8858 20.0249 36.9771 19.7569 36.3955 19.7569C35.8139 19.7569 34.7462 20.1385 34.7462 21.229V28.3351C34.7462 28.3725 34.7313 28.4083 34.7049 28.4347C34.6785 28.4612 34.6427 28.476 34.6053 28.476H31.6566C31.6192 28.476 31.5834 28.4612 31.557 28.4347C31.5305 28.4083 31.5157 28.3725 31.5157 28.3351V28.3351Z" fill="white"/>
<path d="M55.0586 25.3058V20.0125H53.6955C53.6582 20.0125 53.6224 19.9976 53.5959 19.9712C53.5695 19.9448 53.5547 19.909 53.5547 19.8716V17.9724C53.555 17.9433 53.5644 17.915 53.5814 17.8914C53.5985 17.8678 53.6225 17.8501 53.6501 17.8407L55.4675 17.3091L56.4353 14.2785C56.4448 14.2587 56.4588 14.2414 56.4762 14.228C56.4935 14.2146 56.5138 14.2055 56.5353 14.2013H58.1255C58.1442 14.2006 58.1628 14.2038 58.1802 14.2107C58.1975 14.2175 58.2133 14.2279 58.2265 14.2411C58.2397 14.2543 58.2501 14.2701 58.257 14.2875C58.2638 14.3048 58.267 14.3234 58.2664 14.3421V17.3318H60.6518C60.6703 17.3318 60.6886 17.3354 60.7057 17.3425C60.7228 17.3496 60.7383 17.36 60.7514 17.373C60.7644 17.3861 60.7748 17.4016 60.7819 17.4187C60.789 17.4358 60.7926 17.4541 60.7926 17.4726V19.8989C60.7926 19.9172 60.789 19.9353 60.7818 19.9521C60.7747 19.969 60.7642 19.9842 60.7511 19.9969C60.738 20.0096 60.7224 20.0196 60.7053 20.0262C60.6883 20.0327 60.67 20.0358 60.6518 20.0352H58.2664V24.9695C58.2664 25.483 58.5572 25.7965 59.2705 25.7965H60.6336C60.6709 25.7965 60.7068 25.8113 60.7332 25.8377C60.7596 25.8641 60.7744 25.9 60.7744 25.9373C60.7744 25.9737 60.7744 27.6457 60.7744 28.0683C60.7738 28.0967 60.7649 28.1243 60.7488 28.1478C60.7326 28.1712 60.7099 28.1894 60.6836 28.2C59.9711 28.5281 59.1962 28.6986 58.4118 28.6998C56.0355 28.6998 55.0586 27.2913 55.0586 25.3058Z" fill="white"/>
<path d="M101.234 25.3044V20.0111H99.8713C99.834 20.0111 99.7981 19.9963 99.7717 19.9699C99.7453 19.9435 99.7305 19.9076 99.7305 19.8703V17.9711C99.7308 17.9419 99.7401 17.9136 99.7572 17.89C99.7743 17.8664 99.7983 17.8487 99.8259 17.8393L101.643 17.3077L102.611 14.2771C102.62 14.2496 102.638 14.2256 102.662 14.2085C102.685 14.1914 102.714 14.182 102.743 14.1817H104.333C104.352 14.1811 104.37 14.1843 104.388 14.1911C104.405 14.198 104.421 14.2084 104.434 14.2216C104.447 14.2348 104.458 14.2505 104.465 14.2679C104.471 14.2853 104.475 14.3039 104.474 14.3226V17.3122H106.859C106.878 17.3122 106.896 17.3159 106.913 17.323C106.93 17.33 106.946 17.3404 106.959 17.3535C106.972 17.3666 106.982 17.3821 106.989 17.3992C106.997 17.4163 107 17.4346 107 17.4531V19.8794C107 19.8977 106.997 19.9158 106.989 19.9326C106.982 19.9494 106.972 19.9647 106.959 19.9774C106.946 19.9901 106.93 20.0001 106.913 20.0066C106.896 20.0132 106.878 20.0163 106.859 20.0157H104.474V24.9682C104.474 25.4816 104.765 25.7951 105.478 25.7951H106.841C106.879 25.7951 106.914 25.8099 106.941 25.8364C106.967 25.8628 106.982 25.8986 106.982 25.936C106.982 25.9723 106.982 27.6443 106.982 28.0669C106.981 28.0953 106.972 28.123 106.956 28.1464C106.94 28.1698 106.918 28.188 106.891 28.1987C106.179 28.5267 105.404 28.6972 104.619 28.6985C102.211 28.6985 101.234 27.2899 101.234 25.3044Z" fill="white"/>
<path d="M62.752 28.335V17.4304C62.752 17.3931 62.7668 17.3572 62.7932 17.3308C62.8196 17.3044 62.8555 17.2896 62.8928 17.2896H65.5553C65.5845 17.2899 65.6128 17.2993 65.6364 17.3163C65.66 17.3334 65.6777 17.3574 65.6871 17.385L65.9961 18.4936H66.0415C66.4344 18.0212 66.9313 17.6461 67.4933 17.3978C68.0554 17.1495 68.6673 17.0347 69.2811 17.0624C70.8668 17.0624 71.6301 17.7757 72.0572 18.8798H72.1481C72.5189 18.2939 73.0385 17.8169 73.654 17.4976C74.2695 17.1783 74.9587 17.0281 75.6512 17.0624C77.973 17.0624 78.7181 18.58 78.7181 20.5928V28.3169C78.7181 28.3542 78.7033 28.39 78.6768 28.4164C78.6504 28.4429 78.6146 28.4577 78.5772 28.4577H75.6194C75.582 28.4577 75.5462 28.4429 75.5198 28.4164C75.4934 28.39 75.4785 28.3542 75.4785 28.3169V20.9472C75.4785 20.0748 74.6561 19.7386 74.0746 19.7386C73.4021 19.7386 72.4025 20.1657 72.3571 21.1471V28.335C72.3577 28.3537 72.3545 28.3723 72.3477 28.3897C72.3408 28.407 72.3304 28.4228 72.3172 28.436C72.304 28.4492 72.2883 28.4596 72.2709 28.4664C72.2535 28.4733 72.2349 28.4765 72.2162 28.4759H69.2493C69.2127 28.4747 69.178 28.4593 69.1526 28.4331C69.1272 28.4068 69.1129 28.3716 69.113 28.335V20.9472C69.113 20.0748 68.2406 19.7386 67.6045 19.7386C67.1876 19.7359 66.786 19.8957 66.4849 20.1841C66.1838 20.4725 66.0069 20.8668 65.9915 21.2834V28.335C65.9915 28.3716 65.9773 28.4068 65.9519 28.4331C65.9265 28.4593 65.8918 28.4747 65.8552 28.4759H62.8974C62.8785 28.4765 62.8597 28.4733 62.8421 28.4665C62.8244 28.4597 62.8084 28.4494 62.7948 28.4363C62.7812 28.4231 62.7705 28.4074 62.7631 28.39C62.7557 28.3726 62.7519 28.3539 62.752 28.335Z" fill="white"/>
<path d="M80.6659 19.7621V17.7357C80.6671 17.7036 80.6789 17.6728 80.6995 17.6482C80.72 17.6235 80.7481 17.6064 80.7795 17.5994C82.1986 17.2911 83.644 17.1192 85.0959 17.0859C87.9538 17.0859 89.6394 17.7766 89.6394 20.8617V28.3404C89.6394 28.3777 89.6246 28.4136 89.5982 28.44C89.5718 28.4664 89.5359 28.4812 89.4986 28.4812H86.677C86.6465 28.4811 86.617 28.4707 86.5931 28.4517C86.5692 28.4328 86.5524 28.4064 86.5453 28.3767L86.2408 27.2726H86.3681C85.5639 28.3904 84.4961 28.7039 83.1876 28.7039C81.0884 28.7039 79.9707 27.0727 79.9707 25.1508C79.9707 22.2474 82.0926 21.6659 83.6783 21.6659H86.4044V20.9298C86.4044 20.0211 85.7229 19.8166 83.133 19.8166C82.038 19.8166 80.8612 19.903 80.8113 19.903C80.7735 19.903 80.7372 19.8883 80.71 19.862C80.6829 19.8357 80.6671 19.7999 80.6659 19.7621V19.7621ZM86.3999 23.6514H84.6279C83.6874 23.6514 83.0785 24.0104 83.0785 25.0145C83.0785 26.0959 83.8555 26.3412 84.6006 26.3412C84.8427 26.3543 85.0849 26.3163 85.3113 26.2296C85.5378 26.1429 85.7434 26.0095 85.9149 25.838C86.0863 25.6666 86.2197 25.4609 86.3064 25.2345C86.3931 25.0081 86.4312 24.7659 86.418 24.5238V23.6151L86.3999 23.6514Z" fill="white"/>
<path d="M91.5195 28.3353V17.4307C91.5195 17.3942 91.5337 17.359 91.5592 17.3327C91.5846 17.3064 91.6193 17.2911 91.6558 17.2899H94.2911C94.3237 17.2894 94.3553 17.3006 94.3803 17.3215C94.4053 17.3423 94.422 17.3714 94.4274 17.4035L94.7409 19.0982H94.7864C95.116 18.473 95.6132 17.9518 96.2223 17.5931C96.8314 17.2344 97.5283 17.0523 98.2349 17.0673C98.2723 17.0673 98.3081 17.0821 98.3345 17.1085C98.361 17.1349 98.3758 17.1708 98.3758 17.2081V20.2432C98.3758 20.2806 98.361 20.3164 98.3345 20.3428C98.3081 20.3692 98.2723 20.3841 98.2349 20.3841H97.4807C95.4497 20.3841 94.7546 21.1974 94.7546 22.2015V28.3172C94.7546 28.3537 94.7404 28.3889 94.7149 28.4152C94.6895 28.4415 94.6548 28.4568 94.6183 28.458H91.6695C91.6335 28.4606 91.5979 28.4494 91.5701 28.4265C91.5422 28.4037 91.5241 28.3711 91.5195 28.3353V28.3353Z" fill="white"/>
<path d="M42.4863 22.8926C42.4863 19.3396 43.8721 17.0859 47.8023 17.0859C51.7325 17.0859 53.141 19.3577 53.141 22.8926C53.141 26.4275 51.7552 28.6993 47.8023 28.6993C43.8494 28.6993 42.4863 26.4684 42.4863 22.8926ZM45.9758 22.8926C45.9758 24.8146 46.2575 25.9913 47.7932 25.9913C49.329 25.9913 49.6425 24.8146 49.6425 22.8926C49.6425 20.9707 49.3562 19.8121 47.7932 19.8121C46.2302 19.8121 45.9758 20.9707 45.9758 22.8926V22.8926Z" fill="white"/>
<path d="M25.4489 21.7837C25.6033 18.7441 24.5401 13.7734 22.0139 9.70687C21.9458 9.60237 21.8322 9.64326 21.8549 9.75231C22.023 10.3702 22.0639 11.4925 21.0825 11.4243C19.3377 11.3062 21.1415 7.57139 17.3113 4.98155C17.2971 4.96808 17.2784 4.96018 17.2588 4.95928C17.2393 4.95839 17.22 4.96456 17.2046 4.97667C17.1892 4.98878 17.1786 5.00603 17.1749 5.02528C17.1711 5.04452 17.1744 5.06447 17.1841 5.08151C17.4476 5.5813 17.6021 7.13975 16.9978 7.67135C16.5116 8.09844 15.6347 7.98485 14.7578 6.58089C14.1746 5.61244 13.8737 4.50028 13.8889 3.3699C13.9042 2.23951 14.235 1.13588 14.8441 0.183527C14.9168 0.0653937 14.8169 0.0199565 14.7351 0.0472179C9.46454 1.78741 8.41043 8.00303 7.28816 10.2657C7.10188 10.6474 6.93831 10.8428 6.61571 10.8246C5.65702 10.761 6.34764 8.71183 6.67932 7.99848C6.68657 7.98117 6.68764 7.9619 6.68235 7.94389C6.67707 7.92589 6.66575 7.91025 6.65031 7.89959C6.63486 7.88894 6.61622 7.88392 6.59751 7.88538C6.5788 7.88684 6.56117 7.89469 6.54756 7.90761C3.47129 11.2883 1.50361 15.5297 0.908976 20.0617C0.908976 19.9572 0.863541 20.4343 0.836279 20.7841C0.836279 20.9204 0.827192 21.0582 0.809018 21.1976C0.809018 21.3612 0.809018 21.5247 0.809018 21.6928C0.781905 24.9639 2.05533 28.1118 4.34914 30.4439C6.64296 32.7761 9.76928 34.1015 13.0403 34.1286C16.3114 34.1557 19.4593 32.8823 21.7914 30.5885C24.1236 28.2947 25.449 25.1684 25.4761 21.8973C25.4534 21.8564 25.4489 21.8201 25.4489 21.7837ZM13.0721 27.5132C11.94 27.5068 10.8352 27.1647 9.89767 26.5301C8.96011 25.8955 8.23195 24.9969 7.80538 23.9482C7.37881 22.8995 7.27301 21.7478 7.50139 20.6389C7.72977 19.5301 8.28206 18.5139 9.08832 17.7191C9.89457 16.9243 10.9185 16.3866 12.0306 16.1742C13.1426 15.9617 14.2927 16.084 15.3352 16.5255C16.3776 16.967 17.2657 17.708 17.8868 18.6546C18.5079 19.6011 18.8342 20.7107 18.8243 21.8428C18.8111 23.3568 18.1982 24.8038 17.12 25.8667C16.0418 26.9295 14.5862 27.5216 13.0721 27.5132V27.5132Z" fill="white"/>
</g>
<defs>
<clipPath id="clip0_2503_2438">
<rect width="106.202" height="34.0859" fill="white" transform="translate(0.785156 0.0429688)"/>
</clipPath>
</defs>
</svg>
