<svg width="48" height="48" viewBox="0 0 48 48" fill="none" xmlns="http://www.w3.org/2000/svg">
<path d="M24 10V6" stroke="#fd7823" stroke-width="2" stroke-linecap="round" stroke-linejoin="round"/>
<path d="M4 26H8" stroke="#fd7823" stroke-width="2" stroke-linecap="round" stroke-linejoin="round"/>
<path d="M9.7998 11.8L11.9998 14" stroke="#fd7823" stroke-width="2" stroke-linecap="round" stroke-linejoin="round"/>
<path d="M38.2 11.8L36 14" stroke="#fd7823" stroke-width="2" stroke-linecap="round" stroke-linejoin="round"/>
<path d="M44 25.8H40" stroke="#fd7823" stroke-width="2" stroke-linecap="round" stroke-linejoin="round"/>
<path d="M6 34.8C8.2 33.8 11 33.8 13.2 34.8C15.4 35.8 18.2 35.8 20.4 34.8C22.6 33.8 25.4 33.8 27.6 34.8C29.8 35.8 32.6 35.8 34.8 34.8C37 33.8 39.8 33.8 42 34.8" stroke="#fd7823" stroke-width="2" stroke-linecap="round" stroke-linejoin="round"/>
<path d="M13.2002 41.2C15.4002 42.2 18.2002 42.2 20.4002 41.2C22.6002 40.2 25.4002 40.2 27.6002 41.2C29.8002 42.2 32.6002 42.2 34.8002 41.2" stroke="#fd7823" stroke-width="2" stroke-linecap="round" stroke-linejoin="round"/>
<path d="M14 26C14 20.4 18.4 16 24 16C29.6 16 34 20.4 34 26" stroke="#fd7823" stroke-width="2" stroke-linecap="round" stroke-linejoin="round"/>
</svg>
