<svg width="48" height="48" viewBox="0 0 48 48" fill="none" xmlns="http://www.w3.org/2000/svg">
<path d="M37.9993 21.0001H30.1193C27.1693 21.0001 24.7773 18.6081 24.7773 15.6581V15.6581C24.7773 14.2421 25.3393 12.8821 26.3413 11.8801L30.9773 7.24414" stroke="#fd7823" stroke-width="2" stroke-linecap="round" stroke-linejoin="round"/>
<path d="M9.11642 33.16L12.4724 28.126C13.0804 27.214 14.1024 26.666 15.1984 26.666V26.666C16.4404 26.666 17.5724 25.966 18.1284 24.854L18.3804 24.352C18.8404 23.43 18.8404 22.344 18.3804 21.422L16.2404 17.144C15.6844 16.034 14.5504 15.334 13.3084 15.334H4.98242" stroke="#fd7823" stroke-width="2" stroke-linecap="round" stroke-linejoin="round"/>
<path d="M21 4C11.59 4 4 11.59 4 21C4 29.8296 10.6827 37.0569 19.2811 37.9147" stroke="#fd7823" stroke-width="2" stroke-linecap="round" stroke-linejoin="round"/>
<path d="M38 21C38 11.59 30.41 4 21 4" stroke="#fd7823" stroke-width="2" stroke-linecap="round" stroke-linejoin="round"/>
<path d="M37 40C33.134 40 30 36.866 30 33C30 29.134 33.134 26 37 26C40.868 26 44 29.134 44 33C44 36.866 40.868 40 37 40" stroke="#fd7823" stroke-width="2" stroke-linecap="round" stroke-linejoin="round"/>
<path d="M30.66 30.0361C26.956 30.2161 24 33.2521 24 37.0001C24 40.8661 27.134 44.0001 31 44.0001C33.794 44.0001 36.186 42.3521 37.31 39.9841" stroke="#fd7823" stroke-width="2" stroke-linecap="round" stroke-linejoin="round"/>
</svg>
