<svg width="48" height="48" viewBox="0 0 48 48" fill="none" xmlns="http://www.w3.org/2000/svg">
<path d="M27.998 10C28 7.79 23.52 6 18 6C12.48 6 8.004 7.792 8 10C8 12.21 12.476 14 18 14C23.524 14 28 12.21 28 10" stroke="#fd7823" stroke-width="2" stroke-linecap="round" stroke-linejoin="round"/>
<path d="M28 10.0001V25.5201" stroke="#fd7823" stroke-width="2" stroke-linecap="round" stroke-linejoin="round"/>
<path d="M8 18C8 20.21 12.476 22 18 22C23.524 22 28 20.21 28 18" stroke="#fd7823" stroke-width="2" stroke-linecap="round" stroke-linejoin="round"/>
<path d="M39.3635 26.6359C42.8775 30.1499 42.8775 35.8499 39.3635 39.3639C35.8495 42.8779 30.1495 42.8779 26.6355 39.3639C23.1215 35.8499 23.1215 30.1499 26.6355 26.6359C30.1495 23.1219 35.8495 23.1219 39.3635 26.6359" stroke="#fd7823" stroke-width="2" stroke-linecap="round" stroke-linejoin="round"/>
<path d="M25.008 28.8499C23.204 29.5599 20.73 29.9999 17.998 29.9999C12.476 29.9999 8 28.2099 8 25.9999" stroke="#fd7823" stroke-width="2" stroke-linecap="round" stroke-linejoin="round"/>
<path d="M24.89 36.8881C23.096 37.5741 20.678 38.0001 18 38.0001C12.478 38.0001 8.002 36.2101 8 34.0001V10.0001" stroke="#fd7823" stroke-width="2" stroke-linecap="round" stroke-linejoin="round"/>
</svg>
