<svg width="48" height="48" viewBox="0 0 48 48" fill="none" xmlns="http://www.w3.org/2000/svg">
<path d="M34.064 24.934C34.1 24.97 34.1 25.028 34.064 25.064C34.028 25.1 33.97 25.1 33.934 25.064C33.898 25.028 33.898 24.97 33.934 24.934C33.97 24.898 34.03 24.9 34.064 24.934" stroke="#fd7823" stroke-width="2" stroke-linecap="round" stroke-linejoin="round"/>
<path d="M29.324 14.956C29.746 14.054 30 13.06 30 12C30 8.134 26.866 5 23 5C19.134 5 16 8.134 16 12C16 13.246 16.352 14.4 16.924 15.412" stroke="#fd7823" stroke-width="2" stroke-linecap="round" stroke-linejoin="round"/>
<path d="M4.576 21C3.638 21.546 3 22.552 3 23.716C3 25.458 4.412 26.87 6.154 26.87H8" stroke="#fd7823" stroke-width="2" stroke-linecap="round" stroke-linejoin="round"/>
<path fill-rule="evenodd" clip-rule="evenodd" d="M37 13V18.108C38.436 19.404 39.576 21.02 40.252 22.87H42C43.104 22.87 44 23.766 44 24.87V31C44 32.104 43.104 33 42 33H39.378C38.328 34.816 36.812 36.328 35 37.382V41C35 42.104 34.104 43 33 43H29C27.896 43 27 42.104 27 41V39H20V40.736C20 41.84 19.104 42.736 18 42.736H14C12.896 42.736 12 41.84 12 40.736V35.926C9.55 33.728 8 30.55 8 27C8 20.372 13.372 15 20 15H29.052C29.91 15 30.742 14.718 31.426 14.202C32.424 13.45 33.656 13 35 13H37V13Z" stroke="#fd7823" stroke-width="2" stroke-linecap="round" stroke-linejoin="round"/>
</svg>
