<svg width="156" height="39" viewBox="0 0 156 39" fill="none" xmlns="http://www.w3.org/2000/svg">
<path fill-rule="evenodd" clip-rule="evenodd" d="M154.204 10.8126H148.778C148.778 10.8126 145.695 21.4311 145.134 22.7103C145.134 22.7103 141.687 13.3296 141.17 10.8126H135.605C135.605 10.8126 138.28 20.0083 142.583 28.0924L142.572 28.1284C142.233 28.9729 141.635 29.688 140.863 30.1706C140.493 30.4058 140.08 30.5887 139.644 30.7062C139.193 30.826 138.741 30.8532 138.278 30.8586C138.027 30.8641 136.343 30.8554 136.343 30.8554V35.1979C136.343 35.1979 139.269 35.1979 139.269 35.1957C139.329 35.1957 139.392 35.1848 139.452 35.1848H139.607V35.174C140.032 35.1533 140.45 35.1075 140.851 35.0194C142.621 34.6453 144.206 33.6697 145.337 32.2586L145.341 32.2662C150.116 26.5694 154.204 10.8126 154.204 10.8126ZM95.2313 23.3841C94.5891 24.2986 93.6703 24.7591 92.4837 24.7591C91.2916 24.7591 90.3717 24.2986 89.7185 23.3841C89.0654 22.4675 88.7409 21.2286 88.7409 19.6686C88.7409 18.1075 89.0654 16.8807 89.7196 15.9891C90.3728 15.0942 91.2916 14.6479 92.4847 14.6479C93.6713 14.6479 94.588 15.0942 95.2313 15.9891C95.8704 16.8807 96.1915 18.1075 96.1915 19.6686C96.1915 21.2297 95.8704 22.4675 95.2313 23.3841ZM98.9915 12.881C98.1822 12.0578 97.211 11.4113 96.1393 10.9825C95.03 10.5318 93.8129 10.3043 92.4837 10.3043C91.1773 10.3043 89.9689 10.5318 88.8661 10.9825C87.7889 11.4125 86.8112 12.0586 85.9933 12.881C85.1899 13.6975 84.5595 14.6827 84.1067 15.8356C83.6516 16.9895 83.4252 18.2654 83.4252 19.6686C83.4252 21.073 83.6429 22.3575 84.0871 23.5191C84.5291 24.6839 85.1485 25.6833 85.9421 26.5063C86.7346 27.3337 87.6839 27.9705 88.7943 28.4223C89.8993 28.873 91.1294 29.1016 92.4847 29.1016C93.8597 29.1016 95.0985 28.873 96.2078 28.4212C97.2833 27.9917 98.2554 27.3391 99.0601 26.5063C99.8526 25.6833 100.458 24.6828 100.878 23.5191C101.299 22.3575 101.507 21.0719 101.507 19.6686C101.507 18.2654 101.29 16.9884 100.843 15.8356C100.402 14.6827 99.7829 13.6975 98.9915 12.881ZM116.862 12.6426C116.253 11.9002 115.425 11.3221 114.376 10.9117C113.331 10.5035 112.019 10.3043 110.444 10.3043C108.889 10.3043 107.411 10.412 105.998 10.6341C104.588 10.8551 103.437 11.0946 102.54 11.3483V29.1016H107.798V14.9146C108.128 14.8667 108.502 14.8242 108.928 14.7905C109.35 14.7578 109.75 14.7404 110.126 14.7404C111.35 14.7404 112.181 15.0899 112.633 15.7888C113.079 16.4855 113.304 17.6764 113.304 19.3508V29.1016H118.556V18.7215C118.556 17.4652 118.427 16.3244 118.17 15.2956C117.909 14.2723 117.475 13.3905 116.862 12.6426ZM75.5119 8.03229C74.9256 9.23057 74.3558 10.4369 73.8028 11.6509C73.2117 12.9464 72.6238 14.2745 72.0425 15.6287C71.4623 16.9841 70.9136 18.261 70.4052 19.4542C69.8957 18.261 69.3492 16.983 68.7646 15.6287C68.1937 14.2963 67.608 12.9703 67.0076 11.6509C66.4528 10.4377 65.883 9.23142 65.2984 8.03229C64.8392 7.08498 64.3579 6.14851 63.8549 5.22363H58.1113V29.1016H63.5904V15.1084L64.2414 16.455C64.7487 17.6275 65.2582 18.7988 65.7546 19.9713C66.2564 21.1426 66.742 22.2607 67.2046 23.3297L68.3912 26.0687H72.1797C72.5041 25.3099 72.9003 24.3976 73.3663 23.3297C73.8311 22.2607 74.3134 21.1415 74.813 19.9713C75.3116 18.7988 75.8157 17.6275 76.3317 16.455C76.532 15.9891 76.7279 15.5406 76.9152 15.1084V29.1016H82.3932V5.22472H76.9555C76.9555 5.22472 76.0399 6.95564 75.5109 8.03229" fill="white"/>
<path fill-rule="evenodd" clip-rule="evenodd" d="M124.681 16.6312C124.822 16.2257 125.04 15.8515 125.323 15.5296C125.598 15.2139 125.942 14.958 126.352 14.7643C126.77 14.5727 127.266 14.4758 127.841 14.4758C128.438 14.4758 128.937 14.5814 129.34 14.7849C129.719 14.97 130.055 15.2308 130.328 15.5513C130.601 15.8717 130.805 16.2449 130.928 16.6476C131.055 17.0558 131.132 17.4749 131.153 17.9039H124.356C124.423 17.47 124.532 17.0437 124.682 16.6312H124.681ZM129.358 24.7579C127.884 24.7579 126.713 24.453 125.836 23.8412C124.963 23.2305 124.471 22.4064 124.356 21.3679H136.018C136.04 21.0924 136.063 20.7833 136.088 20.4316C136.105 20.0833 136.123 19.7578 136.123 19.4649C136.123 16.4571 135.374 14.1764 133.88 12.6305C132.383 11.0803 130.346 10.3041 127.77 10.3041C126.665 10.3049 125.57 10.5132 124.542 10.9181C123.497 11.3231 122.571 11.924 121.768 12.7144C120.96 13.5047 120.31 14.4932 119.814 15.6809C119.321 16.8697 119.074 18.2566 119.074 19.8373C119.074 21.1512 119.264 22.3716 119.645 23.5027C120.002 24.6006 120.603 25.6034 121.403 26.4354C122.197 27.265 123.197 27.9138 124.405 28.3884C125.613 28.8642 127.031 29.1015 128.668 29.1015C129.313 29.1015 129.956 29.0677 130.599 28.9991C131.243 28.9338 131.846 28.8456 132.413 28.7433C132.975 28.6421 133.487 28.5256 133.948 28.3884C134.096 28.3449 134.219 28.2992 134.35 28.2567V23.8804C133.779 24.1286 133.04 24.3344 132.134 24.5031C131.229 24.6751 130.303 24.7579 129.358 24.7579ZM23.8677 12.6425C23.2548 11.9001 22.4285 11.322 21.3824 10.9116C20.3373 10.5034 19.0266 10.3041 17.4492 10.3041C15.8968 10.3041 14.4141 10.4119 13.0032 10.634C11.5934 10.855 10.4417 11.0945 9.54681 11.3481V29.1015H14.8027V14.9145C15.1315 14.8666 15.507 14.8241 15.9327 14.7904C16.3551 14.7577 16.7524 14.7403 17.1302 14.7403C18.3538 14.7403 19.1877 15.0898 19.6362 15.7886C20.0815 16.4854 20.3035 17.6763 20.3035 19.3506V29.1015H25.5616V18.7214C25.5616 17.4651 25.4321 16.3243 25.1741 15.2955C24.9128 14.2722 24.4773 13.3904 23.8677 12.6425ZM50.2833 23.384C49.6431 24.2985 48.7265 24.7589 47.5356 24.7589C46.349 24.7589 45.4269 24.2985 44.7704 23.384C44.1205 22.4674 43.7939 21.2285 43.7939 19.6685C43.7939 18.1074 44.1205 16.8805 44.7704 15.989C45.4269 15.0941 46.349 14.6478 47.5356 14.6478C48.7265 14.6478 49.6431 15.0941 50.2833 15.989C50.9255 16.8805 51.2434 18.1074 51.2434 19.6685C51.2434 21.2296 50.9255 22.4674 50.2833 23.384ZM54.039 12.8809C53.2327 12.0567 52.2631 11.41 51.1923 10.9824C50.0851 10.5317 48.8659 10.3041 47.5345 10.3041C46.2303 10.3041 45.0241 10.5317 43.918 10.9824C42.8415 11.4124 41.8645 12.0586 41.0473 12.8809C40.2439 13.6974 39.6136 14.6826 39.1597 15.8355C38.7046 16.9894 38.4782 18.2653 38.4782 19.6685C38.4782 21.0728 38.6959 22.3574 39.1422 23.519C39.5831 24.6838 40.2037 25.6832 40.9962 26.5062C41.7865 27.3335 42.738 27.9704 43.8484 28.4222C44.9544 28.8729 46.1835 29.1015 47.5356 29.1015C48.9116 29.1015 50.1548 28.8729 51.263 28.4211C52.338 27.9919 53.3094 27.3392 54.113 26.5062C54.9045 25.6832 55.513 24.6827 55.9332 23.519C56.3534 22.3574 56.5603 21.0718 56.5603 19.6685C56.5603 18.2653 56.3382 16.9883 55.894 15.8355C55.4553 14.6826 54.8359 13.6974 54.0379 12.8809H54.039ZM1.79688 29.1015H6.9635V5.22461H1.79688V29.1015Z" fill="white"/>
<path fill-rule="evenodd" clip-rule="evenodd" d="M33.0111 10.8927C33.0213 10.5512 33.1238 10.2188 33.3076 9.93072C33.4914 9.64267 33.7497 9.4097 34.0551 9.25649C34.0871 9.23888 34.1198 9.22254 34.153 9.2075C34.1585 9.20532 34.1628 9.20532 34.1694 9.20097C34.2423 9.17157 34.3131 9.14653 34.3817 9.12476C34.8302 8.98324 35.2678 9.00284 35.7316 9.00284H39.5113V4.71582H34.0006C30.504 4.71582 27.6648 7.43303 27.6376 10.798L27.6441 10.7969C27.6289 11.167 27.6289 29.1011 27.6289 29.1011H33.0067V17.1915H38.7819V12.9426H33.0111V10.8927Z" fill="white"/>
</svg>
