<svg width="127" height="48" viewBox="0 0 127 48" fill="none" xmlns="http://www.w3.org/2000/svg">
<path d="M54.7092 18.0203L49.7832 3.24223H51.5218L55.4336 15.5159L59.3455 3.24223H61.0841L56.158 18.0203H54.7092Z" fill="white"/>
<path d="M62.7328 18.0203V3.24223H64.4507V18.0203H62.7328Z" fill="white"/>
<path d="M70.998 18.0203L66.072 3.24223H67.8106L71.7224 15.5159L75.6343 3.24223H77.3729L72.4469 18.0203H70.998Z" fill="white"/>
<path d="M79.0216 18.0203V3.24223H87.6524V4.69106H80.7188V9.82405H86.6383V11.2729H80.7188V16.5715H87.6731V18.0203H79.0216Z" fill="white"/>
<path d="M91.4008 11.6454V18.0203H89.6829V3.24223H94.7538C95.6231 3.24223 96.3268 3.32502 96.865 3.4906C97.4169 3.65618 97.886 3.93215 98.2724 4.31851C98.9761 5.03602 99.328 6.0502 99.328 7.36105C99.328 8.64429 99.0451 9.62398 98.4794 10.3001C97.9826 10.8934 97.2513 11.2798 96.2854 11.4592L99.5349 18.0203H97.6308L94.5882 11.6454H91.4008ZM91.3801 10.2173H94.7745C96.6649 10.2173 97.6101 9.29282 97.6101 7.44384C97.6101 6.43655 97.3341 5.70524 96.7822 5.2499C96.2854 4.86354 95.5541 4.67036 94.5882 4.67036H91.3801V10.2173Z" fill="white"/>
<path d="M104.496 18.0203V3.24223H109.215C111.133 3.21464 112.547 3.74587 113.458 4.83594C114.244 5.78803 114.617 7.13337 114.575 8.87197V12.3906C114.631 14.3775 114.141 15.847 113.106 16.7991C112.195 17.627 110.898 18.0341 109.215 18.0203H104.496ZM106.214 16.5922H108.925C110.374 16.6198 111.409 16.2334 112.03 15.4331C112.582 14.7294 112.858 13.66 112.858 12.225V9.03755C112.858 7.40934 112.499 6.24338 111.781 5.53966C111.147 4.93253 110.194 4.64277 108.925 4.67036H106.214V16.5922Z" fill="white"/>
<path d="M117.158 18.0203V3.24223H125.788V4.69106H118.855V9.82405H124.774V11.2729H118.855V16.5715H125.809V18.0203H117.158Z" fill="white"/>
<path fill-rule="evenodd" clip-rule="evenodd" d="M104.067 21.1738H100.463V24.3271H96.1868V42.557H100.463V45.5013H104.067V42.4795C105.516 42.3214 106.651 41.9217 107.472 41.2804C108.255 40.6676 108.8 39.9272 109.106 39.0591C109.429 38.174 109.591 36.9655 109.591 35.4336V31.4506C109.591 29.9016 109.429 28.6931 109.106 27.825C108.8 26.9569 108.255 26.2165 107.472 25.6037C106.893 25.1442 106.221 24.8208 105.455 24.6335C105.055 24.5245 104.593 24.4446 104.067 24.3938V21.1738ZM55.555 42.557V35.3059H57.4699L60.8912 42.557H65.2316L61.2997 34.974C62.4061 34.6676 63.2146 34.157 63.7252 33.4421C64.3039 32.608 64.5933 31.357 64.5933 29.6889C64.5933 27.8846 64.1508 26.5399 63.2656 25.6548C62.789 25.1782 62.1848 24.8378 61.4529 24.6335C60.738 24.4293 59.7678 24.3271 58.5422 24.3271H51.623V42.557H55.555ZM58.2103 32.2931H55.4784V27.4421H58.1592C59.0784 27.4421 59.7252 27.6293 60.0997 28.0038C60.4912 28.3782 60.6869 28.9995 60.6869 29.8676C60.6869 30.7357 60.4997 31.357 60.1252 31.7314C59.7507 32.1059 59.1124 32.2931 58.2103 32.2931ZM66.5194 24.3271V42.557H78.1364V39.3655H70.4002V34.9485H76.8598V31.757H70.4002V27.5186H78.0343V24.3271H66.5194ZM79.6947 42.557V24.3271H83.499L89.9586 35.9953V24.3271H93.7628V42.557H89.9586L83.499 30.8889V42.557H79.6947ZM101.829 39.4421H100.119V27.4421H101.829C103.225 27.4421 104.195 27.7059 104.74 28.2335C105.353 28.8123 105.659 29.9867 105.659 31.757V35.1272C105.659 36.6932 105.429 37.7825 104.97 38.3953C104.459 39.0932 103.412 39.4421 101.829 39.4421ZM120.947 39.1357H114.564L113.491 42.557H109.253L115.84 24.3271H119.645L126.257 42.557H121.993L120.947 39.1357ZM120.002 36.0208L117.781 28.9229L115.508 36.0208H120.002Z" fill="#fd7823"/>
<mask id="mask0_2503_1974" style="mask-type:alpha" maskUnits="userSpaceOnUse" x="0" y="0" width="48" height="48">
<circle cx="23.8768" cy="23.8768" r="23.8768" fill="#C4C4C4"/>
</mask>
<g mask="url(#mask0_2503_1974)">
<path d="M47.7537 23.8768C47.7537 37.0637 37.0637 47.7537 23.8768 47.7537C10.69 47.7537 0 37.0637 0 23.8768C0 10.69 10.69 0 23.8768 0C37.0637 0 47.7537 10.69 47.7537 23.8768Z" fill="#fd7823"/>
<path d="M23.8768 0C17.5443 2.76804e-07 11.4711 2.51559 6.99336 6.99336C2.51559 11.4711 2.01289e-07 17.5443 0 23.8768C-2.01289e-07 30.2094 2.51559 36.2825 6.99336 40.7603C11.4711 45.2381 17.5443 47.7537 23.8768 47.7537V0Z" fill="#5B5B5B"/>
<path d="M24.0641 0.225098L52.1916 28.3526V58.4892H35.1142L0.457031 23.8321L24.0641 0.225098Z" fill="#fd7823" stroke="white" stroke-width="1.00455"/>
<path d="M18.5395 46.1835L-1.80273 25.8413" stroke="white" stroke-width="1.00455"/>
<path fill-rule="evenodd" clip-rule="evenodd" d="M30.6351 39.1941C35.6113 39.1941 39.6453 35.1601 39.6453 30.184C39.6453 29.1585 39.4739 28.173 39.1583 27.2545C39.1821 27.477 39.1943 27.7029 39.1943 27.9316C39.1943 31.4149 36.3705 34.2387 32.8872 34.2387C29.4039 34.2387 26.5801 31.4149 26.5801 27.9316C26.5801 24.4483 29.4039 21.6245 32.8872 21.6245C33.1156 21.6245 33.3412 21.6367 33.5634 21.6603C32.6453 21.345 31.6602 21.1738 30.6351 21.1738C25.659 21.1738 21.625 25.2078 21.625 30.184C21.625 35.1601 25.659 39.1941 30.6351 39.1941Z" fill="white"/>
</g>
</svg>
