<svg width="50" height="51" viewBox="0 0 50 51" fill="none" xmlns="http://www.w3.org/2000/svg">
<path d="M39.5175 29.497C40.4675 27.1695 41 24.627 41 21.957C41 10.912 32.045 1.95703 21 1.95703C9.955 1.95703 1 10.912 1 21.957C1 33.002 9.955 41.957 21 41.957C23.67 41.957 26.215 41.4245 28.545 40.4745" stroke="#fd7823" stroke-width="2" stroke-linecap="round" stroke-linejoin="round"/>
<path d="M21 14.787V13.1945" stroke="#fd7823" stroke-width="2" stroke-linecap="round" stroke-linejoin="round"/>
<path d="M21 29.1044V30.6944" stroke="#fd7823" stroke-width="2" stroke-linecap="round" stroke-linejoin="round"/>
<path d="M16.8571 27.397C17.4746 28.4095 18.5296 29.107 19.8071 29.107H20.9996H22.4221C24.2746 29.107 25.7721 27.607 25.7721 25.757C25.7721 24.2195 24.7246 22.882 23.2346 22.5045L18.7596 21.3795C17.2721 21.007 16.2246 19.6695 16.2246 18.132C16.2246 16.2795 17.7246 14.782 19.5746 14.782H20.9996H22.1921C23.4646 14.782 24.5196 15.4795 25.1346 16.4895" stroke="#fd7823" stroke-width="2" stroke-linecap="round" stroke-linejoin="round"/>
<path d="M38.5 29.457C44.0225 29.457 48.5 33.9345 48.5 39.457C48.5 44.9795 44.0225 49.457 38.5 49.457C32.9775 49.457 28.5 44.9795 28.5 39.457C28.5 33.9345 32.9775 29.457 38.5 29.457" stroke="#fd7823" stroke-width="2" stroke-linecap="round" stroke-linejoin="round"/>
<path d="M35.1992 39.7844H41.8992" stroke="#fd7823" stroke-width="2" stroke-linecap="round" stroke-linejoin="round"/>
<path d="M38.5469 43.1346V36.4346" stroke="#fd7823" stroke-width="2" stroke-linecap="round" stroke-linejoin="round"/>
</svg>
