<?xml version="1.0" encoding="utf-8"?>
<!-- Generator: Adobe Illustrator 26.2.1, SVG Export Plug-In . SVG Version: 6.00 Build 0)  -->
<svg version="1.1" id="Camada_1" xmlns="http://www.w3.org/2000/svg" xmlns:xlink="http://www.w3.org/1999/xlink" x="0px" y="0px"
	 viewBox="0 0 690.67 131.63" style="enable-background:new 0 0 690.67 131.63;" xml:space="preserve">
<style type="text/css">
	.st0{fill:#8F030E;}
	.st1{filter:url(#Adobe_OpacityMaskFilter);}
	.st2{opacity:0.6;mask:url(#SVGID_1_);}
	.st3{fill:#E03535;}
	.st4{fill:#FFFFFF;}
</style>
<g>
	<path class="st3" d="M686.41,129l-545.08,2.05l-98.59,0.58H0V2.07L685.87,0c3.73-0.01,5.69,4.43,3.16,7.17l-50.39,54.62
		c-1.51,1.65-1.5,4.18,0.03,5.82l50.84,54.19C692.06,124.52,690.14,128.98,686.41,129z"/>
	<g>
		<path class="st4" d="M98.77,82.42c-2.19,0-4.12-0.54-5.79-1.61c-1.67-1.07-2.98-2.51-3.92-4.31c-0.94-1.81-1.41-3.81-1.41-6.01
			l0.03-15.94l5.86,0.01L93.52,70.5c0,1.11,0.2,2.12,0.62,3.04c0.41,0.92,1.02,1.65,1.8,2.2c0.79,0.55,1.73,0.82,2.84,0.83
			c1.12,0,2.07-0.27,2.85-0.81c0.78-0.54,1.38-1.27,1.78-2.18c0.41-0.92,0.61-1.94,0.61-3.06l0.03-15.94l5.86,0.01l-0.03,15.94
			c0,1.65-0.27,3.2-0.81,4.64c-0.54,1.44-1.3,2.7-2.29,3.8c-0.99,1.09-2.16,1.94-3.52,2.55C101.91,82.12,100.41,82.43,98.77,82.42z
			 M97.24,52.42l1.57-5.62l5.86,0.01l-3.53,5.62L97.24,52.42z"/>
		<path class="st4" d="M117.88,81.95l0.05-27.35l5.86,0.01l-0.04,21.49l10.74,0.02l-0.01,5.86L117.88,81.95z"/>
		<path class="st4" d="M160.51,54.68l-0.01,5.86l-7.81-0.01l-0.04,21.49L146.79,82l0.04-21.49l-7.81-0.01l0.01-5.86L160.51,54.68z"
			/>
		<path class="st4" d="M168.86,82.04l0.05-27.35l5.86,0.01l-0.05,27.35L168.86,82.04z"/>
		<path class="st4" d="M183.9,82.07l5.36-27.34l5,0.01l6.11,16.15l6.16-16.13l5,0.01l5.27,27.36l-5.98-0.01l-2.83-14.77l-5.61,14.76
			l-4.06-0.01l-5.56-14.78l-2.88,14.76L183.9,82.07z"/>
		<path class="st4" d="M232.23,54.8l6.6,0.01l9.88,27.37l-6.21-0.01l-1.56-4.3l-10.9-0.02l-1.57,4.3l-6.21-0.01L232.23,54.8z
			 M232.2,71.99l6.6,0.01l-3.31-9.07L232.2,71.99z"/>
		<path class="st4" d="M282.5,82.74c-1.85,0-3.59-0.37-5.21-1.11c-1.63-0.74-3.06-1.76-4.29-3.06c-1.23-1.31-2.2-2.81-2.9-4.53
			c-0.7-1.71-1.05-3.55-1.05-5.5c0-1.95,0.36-3.79,1.06-5.5c0.71-1.71,1.68-3.22,2.92-4.52c1.24-1.3,2.67-2.32,4.3-3.05
			c1.63-0.73,3.37-1.1,5.22-1.09c1.86,0,3.61,0.37,5.23,1.11c1.63,0.74,3.06,1.76,4.29,3.07c1.23,1.3,2.2,2.81,2.89,4.53
			c0.69,1.71,1.04,3.55,1.04,5.5c0,1.95-0.35,3.79-1.05,5.5c-0.7,1.71-1.67,3.22-2.91,4.52c-1.24,1.3-2.67,2.32-4.3,3.05
			C286.11,82.38,284.36,82.75,282.5,82.74z M282.51,76.88c1.04,0,2.02-0.21,2.94-0.65c0.92-0.43,1.73-1.03,2.44-1.79
			c0.7-0.76,1.26-1.64,1.66-2.64c0.4-1,0.6-2.08,0.6-3.22c0-1.15-0.19-2.22-0.59-3.22c-0.4-1-0.94-1.89-1.65-2.65
			c-0.7-0.76-1.51-1.36-2.43-1.8c-0.92-0.44-1.9-0.66-2.94-0.66c-1.04,0-2.02,0.22-2.94,0.65c-0.92,0.44-1.73,1.03-2.43,1.79
			c-0.71,0.76-1.26,1.64-1.66,2.65c-0.4,1-0.6,2.08-0.6,3.22c0,1.15,0.19,2.22,0.59,3.22c0.4,1,0.94,1.89,1.65,2.65
			c0.7,0.76,1.51,1.36,2.43,1.8C280.49,76.66,281.47,76.88,282.51,76.88z"/>
		<path class="st4" d="M303.21,82.27l0.05-27.35l10.31,0.02c1.5,0,2.85,0.39,4.07,1.15c1.22,0.76,2.18,1.78,2.9,3.05
			c0.71,1.27,1.07,2.66,1.07,4.17c0,1.54-0.37,2.94-1.11,4.2c-0.74,1.26-1.72,2.27-2.95,3.02c-1.23,0.75-2.56,1.13-4.01,1.13
			l-4.45-0.01l-0.02,10.63L303.21,82.27z M309.1,65.8l3.79,0.01c0.52,0,1-0.13,1.43-0.4c0.43-0.27,0.78-0.62,1.04-1.06
			c0.26-0.44,0.39-0.93,0.39-1.46c0-0.53-0.13-1.02-0.39-1.47c-0.26-0.44-0.6-0.8-1.03-1.07c-0.43-0.27-0.9-0.4-1.43-0.4l-3.79-0.01
			L309.1,65.8z"/>
		<path class="st4" d="M342.08,82.85c-1.85,0-3.59-0.37-5.21-1.11c-1.63-0.74-3.06-1.76-4.29-3.06c-1.24-1.31-2.2-2.81-2.9-4.53
			c-0.7-1.71-1.05-3.55-1.05-5.5c0-1.95,0.36-3.79,1.06-5.5c0.71-1.71,1.68-3.22,2.92-4.52c1.24-1.3,2.67-2.32,4.3-3.05
			c1.63-0.73,3.37-1.1,5.22-1.09c1.86,0,3.61,0.37,5.23,1.11c1.63,0.74,3.06,1.76,4.29,3.07c1.23,1.3,2.2,2.81,2.89,4.53
			c0.69,1.71,1.04,3.55,1.04,5.5c0,1.95-0.35,3.79-1.05,5.5c-0.7,1.71-1.67,3.22-2.91,4.52c-1.24,1.3-2.67,2.32-4.3,3.05
			C345.69,82.49,343.94,82.85,342.08,82.85z M342.09,76.99c1.04,0,2.02-0.21,2.94-0.65c0.92-0.43,1.73-1.03,2.43-1.79
			c0.71-0.76,1.26-1.64,1.66-2.64c0.4-1,0.6-2.08,0.6-3.22c0-1.14-0.19-2.22-0.59-3.22c-0.4-1-0.94-1.89-1.65-2.65
			c-0.7-0.76-1.51-1.36-2.43-1.8c-0.92-0.44-1.9-0.66-2.94-0.66c-1.04,0-2.02,0.22-2.94,0.65c-0.92,0.44-1.73,1.03-2.44,1.79
			c-0.71,0.76-1.26,1.64-1.66,2.64c-0.4,1-0.6,2.08-0.6,3.22c0,1.15,0.19,2.22,0.59,3.22c0.4,1,0.94,1.89,1.65,2.65
			c0.7,0.76,1.51,1.36,2.43,1.8C340.07,76.77,341.05,76.99,342.09,76.99z"/>
		<path class="st4" d="M362.79,82.38l0.05-27.35l11.13,0.02c1.5,0,2.85,0.38,4.06,1.14c1.21,0.76,2.17,1.77,2.88,3.04
			c0.71,1.27,1.06,2.67,1.06,4.19c0,1.17-0.2,2.26-0.59,3.27c-0.39,1.01-0.95,1.9-1.67,2.67c-0.72,0.77-1.58,1.39-2.55,1.86
			l6.47,11.18l-6.76-0.01l-6.15-10.64l-2.03,0l-0.02,10.63L362.79,82.38z M368.68,65.9l4.57,0.01c0.52,0,1-0.13,1.43-0.4
			c0.43-0.27,0.78-0.62,1.04-1.06c0.26-0.44,0.39-0.93,0.39-1.46c0-0.53-0.13-1.02-0.39-1.47c-0.26-0.44-0.6-0.8-1.03-1.07
			c-0.43-0.27-0.9-0.4-1.43-0.4l-4.57-0.01L368.68,65.9z"/>
		<path class="st4" d="M411,55.11l-0.01,5.86l-7.81-0.01l-0.04,21.49l-5.86-0.01l0.04-21.49l-7.81-0.01l0.01-5.86L411,55.11z"/>
		<path class="st4" d="M429.9,83c-2.19,0-4.12-0.54-5.79-1.61c-1.67-1.07-2.98-2.51-3.92-4.31c-0.94-1.81-1.41-3.81-1.41-6.01
			l0.03-15.94l5.86,0.01l-0.03,15.94c0,1.11,0.2,2.12,0.62,3.04c0.42,0.92,1.02,1.65,1.8,2.2c0.79,0.55,1.73,0.82,2.84,0.83
			c1.12,0,2.07-0.27,2.85-0.81c0.78-0.54,1.38-1.27,1.78-2.18c0.4-0.92,0.61-1.94,0.61-3.06l0.03-15.94l5.86,0.01l-0.03,15.94
			c0,1.65-0.27,3.2-0.81,4.64c-0.54,1.44-1.3,2.7-2.29,3.8c-0.99,1.09-2.17,1.94-3.52,2.55C433.04,82.7,431.54,83,429.9,83z"/>
		<path class="st4" d="M449.01,82.53l0.05-27.35l6.33,0.01l9.97,16.78l0.03-16.76l5.86,0.01l-0.05,27.35l-6.33-0.01l-9.97-16.78
			l-0.03,16.76L449.01,82.53z"/>
		<path class="st4" d="M480.38,82.58l0.05-27.35l5.86,0.01l-0.05,27.35L480.38,82.58z"/>
		<path class="st4" d="M495.42,82.61l0.05-27.35l9.06,0.02c1.89,0,3.66,0.36,5.3,1.08c1.65,0.71,3.1,1.7,4.35,2.96
			c1.25,1.26,2.23,2.71,2.94,4.36c0.71,1.65,1.06,3.42,1.06,5.31c0,1.89-0.36,3.66-1.08,5.3c-0.71,1.65-1.7,3.1-2.96,4.35
			c-1.26,1.26-2.71,2.24-4.36,2.94c-1.65,0.71-3.42,1.06-5.31,1.06L495.42,82.61z M501.29,76.76l3.2,0.01c1.06,0,2.05-0.2,2.99-0.6
			c0.94-0.4,1.77-0.96,2.5-1.68c0.73-0.71,1.3-1.54,1.71-2.49c0.41-0.94,0.62-1.96,0.62-3.04c0-1.08-0.2-2.09-0.61-3.03
			c-0.41-0.94-0.97-1.77-1.7-2.49c-0.72-0.72-1.55-1.29-2.49-1.69c-0.94-0.41-1.94-0.61-3.01-0.61l-3.2-0.01L501.29,76.76z"/>
		<path class="st4" d="M532.42,55.32l6.6,0.01l9.87,27.37l-6.21-0.01l-1.56-4.3l-10.9-0.02l-1.57,4.29l-6.21-0.01L532.42,55.32z
			 M532.39,72.51l6.6,0.01l-3.31-9.07L532.39,72.51z"/>
		<path class="st4" d="M555.93,82.71l0.05-27.35l9.06,0.02c1.89,0,3.66,0.36,5.3,1.08c1.65,0.71,3.1,1.7,4.35,2.96
			c1.25,1.26,2.23,2.71,2.94,4.36c0.71,1.65,1.06,3.42,1.06,5.31c0,1.89-0.36,3.66-1.07,5.3c-0.71,1.65-1.7,3.1-2.96,4.35
			c-1.26,1.26-2.71,2.24-4.36,2.94c-1.65,0.71-3.42,1.06-5.31,1.06L555.93,82.71z M561.81,76.86l3.2,0.01c1.06,0,2.05-0.2,2.99-0.6
			c0.94-0.4,1.77-0.96,2.5-1.68c0.73-0.71,1.3-1.54,1.71-2.49c0.41-0.94,0.62-1.96,0.62-3.04c0-1.08-0.2-2.09-0.61-3.03
			c-0.41-0.94-0.97-1.77-1.7-2.49c-0.72-0.72-1.55-1.29-2.49-1.69c-0.94-0.41-1.94-0.61-3.01-0.61l-3.2-0.01L561.81,76.86z"/>
		<path class="st4" d="M585.51,82.76l0.05-27.35l17.42,0.03l-0.01,5.86l-11.56-0.02l-0.01,3.91l8.91,0.02l-0.01,5.86l-8.91-0.02
			l-0.01,5.86l11.56,0.02l-0.01,5.86L585.51,82.76z"/>
	</g>
</g>
</svg>
